<?xml version="1.0" standalone="no"?>
<!DOCTYPE svg PUBLIC "-//W3C//DTD SVG 20010904//EN"
 "http://www.w3.org/TR/2001/REC-SVG-20010904/DTD/svg10.dtd">
<svg version="1.0" xmlns="http://www.w3.org/2000/svg"
 width="512.000000pt" height="512.000000pt" viewBox="0 0 512.000000 512.000000"
 preserveAspectRatio="xMidYMid meet">
<metadata>
Created by potrace 1.11, written by Peter Selinger 2001-2013
</metadata>
<g transform="translate(0.000000,512.000000) scale(0.100000,-0.100000)"
fill="#000000" stroke="none">
<path d="M3516 3953 c-27 -8 -67 -26 -90 -40 -39 -24 -1358 -1331 -1376 -1364
-5 -9 -18 -49 -29 -90 -11 -41 -43 -159 -71 -264 -28 -104 -53 -197 -55 -205
-2 -8 -20 -73 -40 -145 -53 -192 -54 -207 -17 -244 20 -21 40 -31 60 -31 17 0
205 48 419 106 213 58 406 108 427 110 22 3 47 9 55 14 9 5 318 312 687 682
567 568 675 682 698 729 50 104 50 209 2 315 -39 85 -314 362 -403 405 -74 37
-187 47 -267 22z m177 -191 c49 -23 310 -282 326 -325 27 -71 1 -154 -70 -221
l-40 -39 -242 241 -242 242 50 46 c80 74 142 90 218 56z m-159 -481 l240 -240
-512 -513 -513 -512 -241 241 -241 241 509 511 c280 280 511 510 514 511 3 0
113 -108 244 -239z m-992 -1343 c-4 -3 -59 -20 -122 -37 -231 -60 -276 -72
-324 -87 -27 -7 -50 -13 -51 -11 -2 2 96 368 125 471 l12 39 183 -184 c101
-101 181 -187 177 -191z"/>
<path d="M2977 2862 l-297 -297 68 -68 67 -67 300 300 300 300 -65 65 c-35 36
-67 65 -70 65 -3 0 -139 -134 -303 -298z"/>
<path d="M1154 3863 c-12 -2 -32 -15 -45 -29 l-24 -26 -1 -1386 c-1 -1477 -2
-1436 46 -1462 34 -18 2658 -17 2720 1 101 29 192 108 239 209 l26 55 3 693 3
692 -96 0 -95 0 -1 -652 c0 -359 -2 -663 -5 -676 -7 -41 -33 -80 -71 -109
l-36 -28 -1271 -3 -1271 -2 0 1268 0 1268 800 -1 c440 0 808 1 817 3 14 3 17
18 16 97 l0 94 -867 -1 c-476 0 -876 -2 -887 -5z"/>
</g>
</svg>
